<?xml version="1.0" encoding="UTF-8"?>
<svg id="Layer_1" data-name="Layer 1" xmlns="http://www.w3.org/2000/svg" viewBox="0 0 1080 1080">
  <defs>
    <style>
      .cls-1 {
        fill: #f1f2f2;
      }
    </style>
  </defs>
  <path class="cls-1" d="m826.93,341.68c-31.69-30.46-173.36-13.23-222.26-16.61-3.42-.24-6.44,2.07-7.16,5.43l-87.97,413.64c-.91,4.28,2.36,8.32,6.74,8.32h68.5c3.25,0,6.05-2.27,6.73-5.44l28.45-132.76c.66-3.09,3.3-5.37,6.46-5.45,41.9-1.07,114.55,7.14,149.27-14.27,91.51-42.1,140.27-184.68,51.24-252.85Zm-103.38,194.39h-78.89c-4.38,0-7.65-4.04-6.74-8.32l26.53-124.52c.69-3.24,3.54-5.52,6.85-5.44,23.17.5,87.85-4.86,98.67,5.68,43.09,36.66,11.08,131.13-46.42,132.61Z"/>
  <path class="cls-1" d="m523.62,353.53c2.02-9.23-5.02-17.97-14.47-17.97h-73.07c-6.96,0-12.98,4.85-14.47,11.65l-11.74,53.76c-2.02,9.23,5.02,17.97,14.47,17.97h73.07c6.96,0,12.98-4.85,14.47-11.65l11.74-53.76Z"/>
  <path class="cls-1" d="m472.74,502.32h-240.17c-6.96,0-12.98,4.85-14.47,11.65l-11.74,53.76c-2.02,9.23,5.02,17.97,14.47,17.97h240.17c6.96,0,12.98-4.85,14.47-11.65l11.74-53.76c2.02-9.23-5.02-17.97-14.47-17.97Z"/>
  <path class="cls-1" d="m436.34,669.08h-149.34c-6.96,0-12.98,4.85-14.47,11.65l-11.74,53.76c-2.02,9.23,5.02,17.97,14.47,17.97h149.34c6.96,0,12.98-4.85,14.47-11.65l11.74-53.76c2.02-9.23-5.02-17.97-14.47-17.97Z"/>
</svg>