<?xml version="1.0" encoding="UTF-8"?>
<svg id="Layer_1" data-name="Layer 1" xmlns="http://www.w3.org/2000/svg" viewBox="0 0 3460 1080">
  <defs>
    <style>
      .cls-1 {
        fill: #f1f2f2;
      }
    </style>
  </defs>
  <path class="cls-1" d="m971.33,341.68c-31.69-30.46-173.36-13.23-222.26-16.61-3.42-.24-6.44,2.07-7.16,5.43l-87.97,413.64c-.91,4.28,2.36,8.32,6.74,8.32h68.5c3.25,0,6.05-2.27,6.73-5.44l28.45-132.76c.66-3.09,3.3-5.37,6.46-5.45,41.9-1.07,114.55,7.14,149.27-14.27,91.51-42.1,140.27-184.68,51.24-252.85Zm-103.38,194.39h-78.89c-4.38,0-7.65-4.04-6.74-8.32l26.53-124.52c.69-3.24,3.54-5.52,6.85-5.44,23.17.5,87.85-4.86,98.67,5.68,43.09,36.66,11.08,131.13-46.42,132.61Z"/>
  <path class="cls-1" d="m1131.3,685.45c-25.5,9.6-55.77.17-45.81-33.78l70.56-330.9c.91-4.29-2.35-8.32-6.74-8.32h-66.68c-3.25,0-6.05,2.22-6.72,5.4-9.67,45.5-77.21,363.27-77.21,363.27-11.65,43.08,13.26,80.1,60.88,77.36,22.6.04,53.03-5.38,75-14.54,2.45-1.02,4.02-3.42,4.13-6.08l1.8-45.7c.19-4.88-4.63-8.43-9.2-6.71Z"/>
  <path class="cls-1" d="m1468.56,678.8c-9.93-2.76-10.27-13.08-7.87-22.8l45.78-208.01c.95-4.3-2.33-8.37-6.73-8.37h-66.65c-3.24,0-6.04,2.26-6.73,5.42l-10.87,49.96c-34.86-93.65-155-65.25-207.35-1.49-32.8,36.94-52.83,86.83-52.44,137.39-1.36,65.83,42.08,129.88,112.72,127.57,43.16-.04,88.34-24.34,115.73-60.21-11.73,35.05,4.89,53.77,42.19,54.18,9.19-.08,18.36-1.81,28.51-3.48,2.79-.46,5.05-2.56,5.65-5.32l12.48-56.9c.74-3.38-1.07-7.02-4.41-7.95Zm-67.25-113.8l-15.08,71.12c-.19.89-.54,1.74-1.04,2.5-17.91,26.84-48.49,50.29-81.22,51.14-39.37,1.15-64.12-35.16-63.29-72.13-.2-28.22,11.93-57.02,30.14-78.34,42.37-52.18,116.22-48.61,130.51,22.78.19.96.18,1.98-.02,2.93Z"/>
  <path class="cls-1" d="m1826.19,439.63h-63.2c-3.2,0-5.94,2.22-6.66,5.33-19.94,86.24-61.59,161.6-109.7,237l-26.44-236.21c-.39-3.49-3.34-6.12-6.84-6.12h-68.89c-4.26,0-7.49,3.82-6.79,8.02l51.7,309.74c-25.29,38.73-52.58,65.96-100.2,68.16-4.1.19-7.03,4.06-6.36,8.11l7.96,47.5c.55,3.3,3.42,5.81,6.77,5.8,109.14-.37,161.56-116.26,214.19-197.28,52.34-84.08,95.49-151.28,121.13-241.23,1.25-4.39-2.1-8.82-6.67-8.82Z"/>
  <path class="cls-1" d="m2135.03,346.5c-43.65-33.7-162.28-19.18-220.76-21.68-3.39-.14-6.39,2.12-7.1,5.44l-88.03,413.93c-.91,4.26,2.28,8.26,6.64,8.31,101.78.97,237,12.44,306.84-75.1,77.92-83.28,110.15-258.02,2.4-330.91Zm-171.17,368.58h-88.53c-4.38,0-7.65-4.04-6.73-8.32l72.36-339.21c.69-3.22,3.55-5.54,6.85-5.45,43.57,1.18,125.56-8.1,158.01,16.65,127.11,100.5,17.65,346.76-141.95,336.34Z"/>
  <path class="cls-1" d="m2500.42,713.58c-5.93-2.54-6.31-9.85-4.1-16.39l53.65-249.23c.92-4.29-2.35-8.34-6.73-8.34h-26.92c-3.24,0-6.03,2.25-6.73,5.41l-13.28,60.5c-37.5-102.32-158.23-82.49-219.1-11.09-32.33,36.11-53.08,84.37-52.73,133.37-1.46,64.89,41.22,132.47,111.5,130.66,46.59.23,96.2-28.83,125.37-66.54-5.46,26.95-17.88,58.1,21.09,60.51,3.96,0,7.62-.6,11.56-1.18,2.84-.42,5.14-2.56,5.75-5.37l5.27-24.32c.75-3.46-1.35-6.62-4.6-8.01Zm-13.99-163.72l-19.49,94.56c-.11.52-.26,1.02-.47,1.51-18.2,42.3-68.25,74.64-113.61,76.4-53.29.89-86.38-50.84-85.59-100.54-.18-36.84,16.45-74.13,40.68-102.34,31.7-38.16,88.08-64.47,134.11-37.71,23.64,14.06,41.22,37.98,44.47,65.76.09.78.05,1.58-.11,2.36Z"/>
  <path class="cls-1" d="m2814.83,472.62c-50.82-57.18-166.05-48.06-211.35,12.23-17,21.48-25.82,65.09-8.82,88.8.25.35.53.69.81,1.01,18.28,20.29,46.29,24.47,75.81,34.58,24.91,6.8,43.89,13.29,56.96,19.48,13.05,6.2,19.59,16.88,19.59,32.06-.4,46.55-49.34,65.8-91.62,65.15-36.13-.09-66.13-12.03-91.83-36.91-2.88-2.78-7.45-2.71-10.08.31l-15.25,17.54c-2.28,2.62-2.33,6.61.05,9.15,28.14,29.94,70.99,42.45,113.49,42.46,47.58.03,92.62-13.89,119.65-49.75,18.05-23.45,25.12-66.72,5.73-90.5-7.64-9.19-18.99-16.88-34.06-23.07-15.07-6.2-33.26-12.29-54.54-18.29-32.28-10.47-63.49-12.76-63.29-44.89-1.12-73.51,123.57-84.43,163.28-36.24,2.52,3.06,7.09,3.31,9.96.57l14.97-14.25c2.63-2.51,2.96-6.72.55-9.43Z"/>
  <path class="cls-1" d="m3079.48,445.06c-.37-.24-.77-.48-1.17-.67-60.53-30.21-137.46,14.26-174.5,66.53l40.43-190.15c.91-4.28-2.36-8.32-6.74-8.32h-26.9c-3.25,0-6.06,2.28-6.74,5.46l-90.5,426.23c-.91,4.28,2.36,8.32,6.74,8.32h26.9c3.26,0,6.07-2.28,6.74-5.46l39.23-185.72c47.4-98.31,205.25-144.36,167.56,16.91l-35.58,165.95c-.92,4.29,2.35,8.33,6.73,8.33h26.88c3.26,0,6.07-2.28,6.74-5.47l37.42-177.34c8.64-41.78,16-98.48-23.24-124.59Z"/>
  <path class="cls-1" d="m668.02,353.53c2.02-9.23-5.02-17.97-14.47-17.97h-73.07c-6.96,0-12.98,4.85-14.47,11.65l-11.74,53.76c-2.02,9.23,5.02,17.97,14.47,17.97h73.07c6.96,0,12.98-4.85,14.47-11.65l11.74-53.76Z"/>
  <path class="cls-1" d="m617.14,502.32h-240.17c-6.96,0-12.98,4.85-14.47,11.65l-11.74,53.76c-2.02,9.23,5.02,17.97,14.47,17.97h240.17c6.96,0,12.98-4.85,14.47-11.65l11.74-53.76c2.02-9.23-5.02-17.97-14.47-17.97Z"/>
  <path class="cls-1" d="m580.74,669.08h-149.34c-6.96,0-12.98,4.85-14.47,11.65l-11.74,53.76c-2.02,9.23,5.02,17.97,14.47,17.97h149.34c6.96,0,12.98-4.85,14.47-11.65l11.74-53.76c2.02-9.23-5.02-17.97-14.47-17.97Z"/>
</svg>